<mxfile host="app.diagrams.net" modified="2024-04-21T00:35:32.269Z" agent="Mozilla/5.0 (Windows NT 10.0; Win64; x64; rv:125.0) Gecko/20100101 Firefox/125.0" version="24.2.7" etag="KfqKRJSk87PVsD4--6bp" type="github">
  <diagram name="PÃ¡gina-1" id="EOxt3B_Bt0JV2928sr7g">
    <mxGraphModel>
      <root>
        <mxCell id="0" />
        <mxCell id="1" parent="0" />
      </root>
    </mxGraphModel>
  </diagram>
</mxfile>
